HIERARCHY
ROOT SpineBase
{
  OFFSET 0.000000 0.000000 0.000000
  CHANNELS 6 Xposition Yposition Zposition Zrotation Xrotation Yrotation
  JOINT SpineMid
  {
    OFFSET 0.000000 31.807427 0.000000
    CHANNELS 3 Zrotation Xrotation Yrotation
    JOINT SpineShoulder
    {
      OFFSET 0.197029 23.564535 -0.786264
      CHANNELS 3 Zrotation Xrotation Yrotation
      JOINT Neck
      {
        OFFSET 0.129272 7.773172 -0.605038
        CHANNELS 3 Zrotation Xrotation Yrotation
        JOINT Head
        {
          OFFSET 3.586812 13.898660 0.100475
          CHANNELS 3 Zrotation Xrotation Yrotation
          End Site
          {
            OFFSET 0 0 0
          }
        }
      }
      JOINT ShoulderLeft
      {
        OFFSET -15.135343 -3.339344 -8.238337
        CHANNELS 3 Zrotation Xrotation Yrotation
        JOINT ElbowLeft
        {
          OFFSET -7.559153 -27.083697 -1.306849
          CHANNELS 3 Zrotation Xrotation Yrotation
          JOINT WristLeft
          {
            OFFSET 0.773052 -22.046071 -3.941175
            CHANNELS 3 Zrotation Xrotation Yrotation
            JOINT HandLeft
            {
              OFFSET 0.591895 -6.806698 -0.842394
              CHANNELS 3 Zrotation Xrotation Yrotation
              JOINT HandTipLeft
              {
                OFFSET 0.225736 -8.022047 -0.826732
                CHANNELS 3 Zrotation Xrotation Yrotation
                End Site
                {
                  OFFSET 0 0 0
                }
              }
              JOINT ThumbLeft
              {
                OFFSET 4.125177 0.842547 0.814833
                CHANNELS 3 Zrotation Xrotation Yrotation
                End Site
                {
                  OFFSET 0 0 0
                }
              }
            }
          }
        }
      }
      JOINT ShoulderRight
      {
        OFFSET 16.716112 -5.803991 6.052006
        CHANNELS 3 Zrotation Xrotation Yrotation
        JOINT ElbowRight
        {
          OFFSET 4.378626 -29.172051 2.742751
          CHANNELS 3 Zrotation Xrotation Yrotation
          JOINT WristRight
          {
            OFFSET 3.086753 -21.658269 -2.623360
            CHANNELS 3 Zrotation Xrotation Yrotation
            JOINT HandRight
            {
              OFFSET 0.216665 -4.098045 -1.279970
              CHANNELS 3 Zrotation Xrotation Yrotation
              JOINT HandTipRight
              {
                OFFSET -0.242145 -6.440567 0.538610
                CHANNELS 3 Zrotation Xrotation Yrotation
                End Site
                {
                  OFFSET 0 0 0
                }
              }
              JOINT ThumbRight
              {
                OFFSET -1.517552 -0.779678 -2.097158
                CHANNELS 3 Zrotation Xrotation Yrotation
                End Site
                {
                  OFFSET 0 0 0
                }
              }
            }
          }
        }
      }
    }
  }
  JOINT HipLeft
  {
    OFFSET -5.798018 1.034130 -6.672978
    CHANNELS 3 Zrotation Xrotation Yrotation
    JOINT KneeLeft
    {
      OFFSET -4.384508 -33.454525 2.026362
      CHANNELS 3 Zrotation Xrotation Yrotation
      JOINT AnkleLeft
      {
        OFFSET -4.131827 -35.692277 8.004898
        CHANNELS 3 Zrotation Xrotation Yrotation
        JOINT FootLeft
        {
          OFFSET 4.375178 -5.441774 -10.931257
          CHANNELS 3 Zrotation Xrotation Yrotation
          End Site
          {
            OFFSET 0 0 0
          }
        }
      }
    }
  }
  JOINT HipRight
  {
    OFFSET 7.050376 0.005922 -1.038023
    CHANNELS 3 Zrotation Xrotation Yrotation
    JOINT KneeRight
    {
      OFFSET -2.628884 -34.564641 2.842663
      CHANNELS 3 Zrotation Xrotation Yrotation
      JOINT AnkleRight
      {
        OFFSET -5.257276 -35.000295 8.225607
        CHANNELS 3 Zrotation Xrotation Yrotation
        JOINT FootRight
        {
          OFFSET 3.678158 -5.571870 -11.290086
          CHANNELS 3 Zrotation Xrotation Yrotation
          End Site
          {
            OFFSET 0 0 0
          }
        }
      }
    }
  }
}
MOTION
Frames: 7
Frame Time: 0.033333
-62.802721 80.758876 390.745124 -1.191205 -1.792515 -3.919705 -0.098002 -0.322657 3.873302 -0.012807 -0.196959 -0.040524 6.452899 -16.723282 5.679268 0.000000 0.000000 0.000000 -5.848263 2.728553 0.570736 27.268373 28.804597 -7.499584 39.194508 2.487821 7.361613 -30.567710 17.979166 -8.791408 0.000000 0.000000 0.000000 0.000000 0.000000 0.000000 9.763123 1.108266 0.395784 -42.034449 44.222755 23.962629 -42.487312 8.736575 0.396407 48.256702 27.851626 0.100906 0.000000 0.000000 0.000000 0.000000 0.000000 0.000000 -0.398765 8.994989 3.015372 4.724372 -14.860747 3.408956 -14.724620 -3.693032 17.632311 0.000000 0.000000 0.000000 14.262317 24.748817 0.194111 4.764435 -8.661165 5.440111 -23.800409 -4.922796 8.037367 0.000000 0.000000 0.000000
-62.353750 79.715542 390.146489 -2.234261 -3.027688 0.442314 -0.048783 -0.294669 -0.554217 0.008529 -0.194287 -0.073802 10.507001 -17.253668 6.537673 0.000000 0.000000 0.000000 -6.963583 2.632336 1.210724 38.393238 34.637776 -13.320998 42.295123 -3.074448 13.968460 -34.809961 35.748335 -13.893166 0.000000 0.000000 0.000000 0.000000 0.000000 0.000000 13.878598 5.080755 0.493288 -57.450936 40.065403 27.643139 -47.320583 13.149060 7.128096 40.793784 20.533900 -5.975244 0.000000 0.000000 0.000000 0.000000 0.000000 0.000000 0.483147 11.835397 -1.602250 5.569262 -17.323793 3.918663 -15.174454 0.023977 21.861068 0.000000 0.000000 0.000000 18.830640 26.079456 -5.423389 5.972513 -7.491928 6.009328 -27.141814 -6.473948 8.236029 0.000000 0.000000 0.000000
-61.657791 78.441969 389.482494 -3.533194 -4.843406 4.192465 0.029633 -0.318932 -4.426435 0.080031 -0.166754 -0.110697 15.135090 -17.002821 7.186490 0.000000 0.000000 0.000000 -7.664245 2.403385 2.064116 50.485524 39.581539 -21.098607 51.701768 -5.609941 22.828768 -43.758890 52.817341 -20.682333 0.000000 0.000000 0.000000 0.000000 0.000000 0.000000 16.450083 9.052163 0.152870 -71.529486 34.745317 30.103647 -55.551823 12.838944 12.660241 43.826532 16.097955 -11.006376 0.000000 0.000000 0.000000 0.000000 0.000000 0.000000 1.649424 14.963743 -5.641001 6.473944 -19.438049 4.310685 -14.894228 6.116907 25.558505 0.000000 0.000000 0.000000 23.811343 27.761938 -10.832944 6.485301 -7.155033 6.446202 -30.073598 -9.097145 8.374049 0.000000 0.000000 0.000000
-60.821943 76.939737 388.492319 -4.803710 -6.427234 6.988264 -0.034679 -0.417178 -7.378393 0.073338 -0.160760 -0.156933 20.955993 -15.784567 7.356917 0.000000 0.000000 0.000000 -6.095621 4.166069 2.276326 58.855128 42.282723 -26.929010 50.685825 0.385997 22.542632 -44.401977 51.664261 -28.387751 0.000000 0.000000 0.000000 0.000000 0.000000 0.000000 17.742000 12.814409 -0.213904 -82.446336 28.219444 29.520063 -66.351305 8.209563 14.545393 56.307189 14.013798 -12.134733 0.000000 0.000000 0.000000 0.000000 0.000000 0.000000 2.490102 17.232620 -8.637352 7.640979 -21.165733 4.637018 -13.904971 14.351365 27.644256 0.000000 0.000000 0.000000 28.105323 29.006828 -15.171346 6.738720 -7.416968 6.848930 -33.167435 -13.180801 8.881788 0.000000 0.000000 0.000000
-59.414891 75.395385 387.017066 -6.123175 -8.084633 8.939694 0.135016 -0.366158 -9.529983 0.123831 -0.125296 -0.194548 25.521072 -13.681948 6.755021 0.000000 0.000000 0.000000 -4.696095 4.987865 2.559689 66.230905 44.184969 -32.929919 49.882178 2.675117 23.772154 -42.793473 52.132244 -34.275927 0.000000 0.000000 0.000000 0.000000 0.000000 0.000000 17.959141 15.399047 -0.517093 -90.705050 22.206460 27.837846 -76.598997 0.715608 4.448185 70.096437 26.613152 -8.132493 0.000000 0.000000 0.000000 0.000000 0.000000 0.000000 2.996445 18.895904 -10.666191 8.555134 -22.717195 4.683268 -14.096774 17.442854 30.877477 0.000000 0.000000 0.000000 31.608002 30.609316 -18.711702 6.951756 -8.834506 7.457038 -34.448764 -13.606616 10.395531 0.000000 0.000000 0.000000
-57.713013 73.915406 385.213407 -7.632578 -9.831448 10.410367 0.144857 -0.440014 -11.272312 0.121978 -0.176494 -0.248907 29.791023 -11.435580 5.766301 0.000000 0.000000 0.000000 -2.730634 5.957801 2.827158 72.864931 45.384428 -38.819747 49.396486 1.632209 27.155893 -38.827300 55.456844 -39.828870 0.000000 0.000000 0.000000 0.000000 0.000000 0.000000 18.558579 17.271095 -0.934489 -97.648793 17.016131 26.169263 -101.780512 18.537740 -124.645614 -86.285470 23.421375 -165.506438 0.000000 0.000000 0.000000 0.000000 0.000000 0.000000 3.737461 19.971667 -12.201549 8.571867 -23.833157 4.230268 -13.062554 20.122688 32.360373 0.000000 0.000000 0.000000 35.054619 32.478024 -21.964391 7.133956 -11.234501 8.282199 -35.260732 -12.685171 12.982012 0.000000 0.000000 0.000000
-55.896209 72.671310 383.281319 -9.087430 -11.298417 10.590099 0.179474 -0.455579 -11.741204 0.080324 -0.238766 -0.303444 33.344351 -9.153570 4.498981 0.000000 0.000000 0.000000 -1.496498 5.954724 3.266384 78.744694 45.859679 -44.113264 57.070120 -4.637161 39.135020 -31.378020 68.725203 -50.428341 0.000000 0.000000 0.000000 0.000000 0.000000 0.000000 18.495643 17.924006 -1.200854 -101.692645 13.378001 25.666433 -83.040583 14.938525 164.014403 -67.140866 -43.042996 -157.398725 0.000000 0.000000 0.000000 0.000000 0.000000 0.000000 4.077761 19.826131 -12.318121 7.912878 -24.029912 3.386663 -11.642553 23.735343 33.521368 0.000000 0.000000 0.000000 37.311681 34.739516 -23.746916 7.223478 -14.378341 9.123235 -35.166083 -10.319188 16.298509 0.000000 0.000000 0.000000
